<svg viewBox="19.680851063829806 26.625 255.31914893617017 404.6999999999999" fill="none" xmlns="http://www.w3.org/2000/svg" xmlns:xlink="http://www.w3.org/1999/xlink" overflow="visible" width="255.31914893617017px" height="404.6999999999999px"><g id="Master/Pose/Standing"><g id="Head/Front" transform="translate(82 0) scale(1 1)"><g id="Head/Front/Short Beard"><g id="Head"><path id="SKIN" fill-rule="evenodd" clip-rule="evenodd" d="M73.9354 75.2443C80.411 79.1475 86.7736 81.0333 89.7603 80.2635C97.2496 78.333 97.9382 50.9351 92.1433 40.1339C86.3485 29.3328 56.5583 24.625 55.0568 46.0255C54.5356 53.4529 57.6544 60.0814 62.2623 65.4901L54 104H78L73.9354 75.2443Z" fill="#915b3c"/></g><path id="Hair" fill-rule="evenodd" clip-rule="evenodd" d="M71.7199 51.0426C71.4839 51.0144 71.2437 50.9999 71.0001 50.9999C67.6864 50.9999 65.0001 53.6862 65.0001 56.9999C65.0001 58.6821 65.6924 60.2026 66.8076 61.2921C65.4193 63.2517 63.8634 65.2988 62.0805 67.4111C55.3825 63.3926 49.4122 50.6289 55.9606 39.3282C57.7706 33.7921 62.8681 31.8351 67.7075 30.4621C71.6276 28.8223 75.697 28.6374 79.1322 29.6205C85.8661 30.198 91.8791 32.2514 93.5833 33.4708C93.5833 39.8461 92.348 41.7376 81.7969 41.5708C79.2043 42.94 77.2113 45.2978 75.1354 48.3888C75.1527 48.626 76.5501 67.5846 82.4259 67.5846C85.9827 67.5846 89.2152 66.2263 91.7912 65.1439C93.4976 64.4269 94.9159 63.8309 95.9497 63.8309C97.8409 63.8309 97.4187 66.1976 96.1651 67.9524C95.7677 68.5086 94.7795 69.0571 93.7132 69.6489C92.004 70.5976 90.094 71.6578 90.094 73.0399C90.094 74.3079 91.3641 74.3054 92.4692 74.3032C93.3203 74.3015 94.0735 74.3 94.0735 74.8791C94.0735 75.1563 94.0846 75.4642 94.0963 75.7907C94.1779 78.0577 94.2918 81.2209 90.9513 81.2209C87.0838 81.2209 75.9949 79.8115 74.0945 74.0714C72.4826 69.2025 71.8691 55.1856 71.7199 51.0426Z" fill="#2c1b18"/></g></g><g id="Lower Body/Standing" transform="translate(0 187) scale(1 1)"><g id="Lower Body/Standing/Sprint"><path id="SKIN" fill-rule="evenodd" clip-rule="evenodd" d="M116.644 9.27652e-05C118.447 24.6097 234.607 97.0636 235.284 99.0965C235.736 100.452 199.128 184.778 199.128 184.778L209.282 188.724C209.282 188.724 265.433 99.4162 262.549 89.9001C258.419 76.2758 172.422 0.261797 172.422 0.261797L116.644 9.27652e-05Z" fill="#915b3c"/><path id="shadow" fill-rule="evenodd" clip-rule="evenodd" d="M116.644 9.27652e-05C118.447 24.6097 234.607 97.0636 235.284 99.0965C235.736 100.452 199.128 184.778 199.128 184.778L209.282 188.724C209.282 188.724 265.433 99.4162 262.549 89.9001C258.419 76.2758 172.422 0.261797 172.422 0.261797L116.644 9.27652e-05Z" fill="black" fill-opacity="0.1"/><path id="Pant" fill-rule="evenodd" clip-rule="evenodd" d="M201.8 172.082L218.379 178.117C253.336 138.674 267.038 106.131 264.54 89.5493C262.042 72.9678 174.724 0.0603902 174.724 0.0603902L115.455 0.0603841C117.477 57.0526 225.143 99.3135 226.583 101.742C228.023 104.171 213.851 127.957 201.8 172.082Z" fill="#1820bf"/><g id="Right [shoe]"><path id="shoe" fill-rule="evenodd" clip-rule="evenodd" d="M198.379 182.737C197.533 181.927 196.173 181.94 195.421 182.838C194.051 184.476 192.103 186.97 191.522 188.565C190.597 191.107 189.669 196.292 189.669 196.292C192.618 197.365 242.67 215.582 242.67 215.582C242.67 215.582 247.222 209.504 242.969 207.339C238.716 205.175 235.931 203.664 235.931 203.664L215.294 183.716C214.889 183.325 214.241 183.345 213.861 183.761L210.88 187.026C210.88 187.026 206.059 187.449 203.483 186.511C201.915 185.94 199.796 184.094 198.379 182.737Z" fill="#E4E4E4"/></g><path id="SKIN" fill-rule="evenodd" clip-rule="evenodd" d="M130 0L78.254 124.227L27.3958 229.25H39.3949L170.674 0H130Z" fill="#915b3c"/><g id="Left [shoe]"><path id="shoe_2" fill-rule="evenodd" clip-rule="evenodd" d="M29.4496 223.284C28.3779 222.813 27.1043 223.29 26.7051 224.391C25.977 226.398 25 229.409 25 231.106C25 233.811 25.9012 239 25.9012 239C29.0392 239 82.3031 239 82.3031 239C82.3031 239 84.5016 231.732 79.7648 231.152C75.0281 230.573 71.895 230.106 71.895 230.106L45.68 218.419C45.1654 218.189 44.563 218.43 44.3483 218.951L42.6632 223.039C42.6632 223.039 38.2782 225.085 35.5367 225.085C33.8677 225.085 31.2457 224.074 29.4496 223.284Z" fill="#E4E4E4"/></g><path id="Pant" fill-rule="evenodd" clip-rule="evenodd" d="M31.9885 207.433L58.6507 212.433C79.2658 182.125 165.541 57.8518 175 0H115.644C84.0549 41.821 51.639 176.624 31.9885 207.433Z" fill="#2b44ff"/></g></g><g id="Upper Body" transform="translate(22 82) scale(1 1)"><g id="Upper Body/Trench Coat"><path id="SKIN" fill-rule="evenodd" clip-rule="evenodd" d="M24.0271 138.201C27.9454 132.855 51.5391 75.3752 51.5391 75.3752L69.1504 78.564C69.1504 78.564 38.4903 139.405 36.3073 142.902C33.4714 147.445 35.5707 155.142 36.9942 160.361C37.2144 161.169 37.4184 161.917 37.5855 162.585C34.1826 163.44 32.9683 161.467 31.6882 159.387C30.2422 157.037 28.7122 154.551 23.8497 155.85C21.9711 156.351 20.1598 157.017 18.3901 157.667C12.2774 159.912 6.66196 161.974 0.486925 156.477C-0.492045 155.606 -1.24581 152.841 2.01427 151.36C10.1363 147.669 22.1115 140.815 24.0271 138.201ZM227.788 108.555L195.89 85.1316L188.838 102.563L220.426 115.661C229.359 126.155 234.355 130.53 235.412 128.785C236.304 127.314 235.607 125.937 234.965 124.669C234.465 123.681 233.998 122.758 234.342 121.909C235.126 119.97 241.127 120.174 246.814 120.611C252.5 121.048 250.843 118.518 249.472 117.269C243.667 113.794 236.439 110.89 227.788 108.555Z" fill="#915b3c"/><path id="Back Arm" fill-rule="evenodd" clip-rule="evenodd" d="M138.264 2.0415L127.569 6.42763C127.681 9.22099 127.67 13.1947 127.658 17.7472C127.618 32.036 127.562 52.0268 131.254 59.1216C144.043 83.7012 170.303 96.5048 199.551 110.765C203.471 112.676 207.445 114.614 211.448 116.61L219.495 100.182C218.563 99.521 217.639 98.8566 216.723 98.1885C217.987 97.7455 219.042 96.7451 219.503 95.3772C220.296 93.022 219.03 90.4694 216.675 89.6759C211.889 88.0632 207.424 87.3833 203.32 87.678C173.349 62.4233 153.173 32.8583 138.264 2.0415Z" fill="#e87613"/><path id="Shirt" fill-rule="evenodd" clip-rule="evenodd" d="M90 113.91C90 113.91 137.157 119.09 164.236 113.91C166.473 113.482 166.375 103.84 165.337 101.207C149.185 60.2019 138.56 30.184 138.56 1.70264C134.115 4.02478 123 2.39864 123 2.39864C103.086 31.7496 93.9325 65.4265 90 113.91Z" fill="#191847"/><path id="Coat Front" fill-rule="evenodd" clip-rule="evenodd" d="M30.1925 114.406C57.9812 34.9799 114.976 0 114.976 0H116.532H120.377H126.348C125.06 17.0357 131.113 41.826 138.134 70.5842C149.364 116.577 163.071 172.719 153.191 223.518C141.042 226.231 126.766 224.379 111.312 222.374C89.0082 219.479 64.2489 216.267 39.8828 226C40.8222 205.65 52.7036 183.124 64.5315 160.699C72.0289 146.484 79.5048 132.31 84.1585 118.758C83.0909 117.753 82.5343 116.247 82.8078 114.696L83.3288 111.741C83.6818 109.739 85.3078 108.281 87.2277 108.053C87.5633 106.553 87.8527 105.063 88.0917 103.583C89.3128 96.0246 88.5333 88.5548 87.7625 81.169L87.7624 81.1688C87.3392 77.1137 86.9187 73.084 86.8334 69.0787C73.4403 81.0101 57.228 101.813 43.5479 137.871L24.6611 132.313C25.3833 129.63 26.1401 126.991 26.9288 124.396C24.7427 123.191 22.1654 117.47 24.0066 116.516C25.952 115.508 28.0161 114.807 30.1925 114.406Z" fill="#ffa434"/><path id="Shade Lapel" fill-rule="evenodd" clip-rule="evenodd" d="M119.106 1L113.947 16.8654L124.336 28.759L114.947 38.1055L137.662 77L109.884 38.1832L119.106 28.759L109.884 18.2485L119.106 1Z" fill="black" fill-opacity="0.1"/><path id="Buttons" fill-rule="evenodd" clip-rule="evenodd" d="M135 88C135 90.2091 133.209 92 131 92C128.791 92 127 90.2091 127 88C127 85.7909 128.791 84 131 84C133.209 84 135 85.7909 135 88ZM140 111C140 113.209 138.209 115 136 115C133.791 115 132 113.209 132 111C132 108.791 133.791 107 136 107C138.209 107 140 108.791 140 111ZM137 138C139.209 138 141 136.209 141 134C141 131.791 139.209 130 137 130C134.791 130 133 131.791 133 134C133 136.209 134.791 138 137 138Z" fill="black" fill-opacity="0.4"/></g></g></g></svg>